<?xml version="1.0" encoding="utf-8"?>
<!-- Generator: Adobe Illustrator 25.1.0, SVG Export Plug-In . SVG Version: 6.00 Build 0)  -->
<svg version="1.1" id="Layer_1" xmlns="http://www.w3.org/2000/svg" xmlns:xlink="http://www.w3.org/1999/xlink" x="0px" y="0px"
	 viewBox="0 0 32 32" style="enable-background:new 0 0 32 32;" xml:space="preserve">
<style type="text/css">
	.st0{fill:#C6C6C6;}
</style>
<g>
	<path class="st0" d="M26.3,32H5.7C2.6,32,0,29.4,0,26.3V5.7C0,2.6,2.6,0,5.7,0h20.5C29.4,0,32,2.6,32,5.7v20.5
		C32,29.4,29.4,32,26.3,32z M5.7,2.7c-1.7,0-3,1.3-3,3v20.5c0,1.7,1.4,3.1,3.1,3.1h20.5c1.7,0,3.1-1.4,3.1-3.1V5.7
		c0-1.7-1.4-3.1-3.1-3.1"/>
</g>
</svg>
