<?xml version="1.0" encoding="utf-8"?>
<!-- Generator: Adobe Illustrator 25.1.0, SVG Export Plug-In . SVG Version: 6.00 Build 0)  -->
<svg version="1.1" id="Layer_1" xmlns="http://www.w3.org/2000/svg" xmlns:xlink="http://www.w3.org/1999/xlink" x="0px" y="0px"
	 viewBox="0 0 32 32" style="enable-background:new 0 0 32 32;" xml:space="preserve">
<style type="text/css">
	.st0{fill:#1379E6;}
	.st1{fill:#FFFFFF;}
</style>
<g>
	<path class="st0" d="M25.8,32H6.2C2.8,32,0,29.2,0,25.8V6.2C0,2.8,2.8,0,6.2,0h19.7C29.2,0,32,2.8,32,6.2v19.7
		C32,29.2,29.2,32,25.8,32z"/>
</g>
<path class="st1" d="M22.5,17.9h-13c-0.6,0-1.1-0.5-1.1-1.1v-1.6c0-0.6,0.5-1.1,1.1-1.1h13c0.6,0,1.1,0.5,1.1,1.1v1.6
	C23.6,17.4,23.1,17.9,22.5,17.9z"/>
</svg>
