<?xml version="1.0" encoding="utf-8"?>
<!-- Generator: Adobe Illustrator 25.1.0, SVG Export Plug-In . SVG Version: 6.00 Build 0)  -->
<svg version="1.1"
	 id="Layer_1" inkscape:version="1.0.2 (e86c870879, 2021-01-15)" sodipodi:docname="checkbox-checked-disabled.svg" xmlns:cc="http://creativecommons.org/ns#" xmlns:dc="http://purl.org/dc/elements/1.1/" xmlns:inkscape="http://www.inkscape.org/namespaces/inkscape" xmlns:rdf="http://www.w3.org/1999/02/22-rdf-syntax-ns#" xmlns:sodipodi="http://sodipodi.sourceforge.net/DTD/sodipodi-0.dtd" xmlns:svg="http://www.w3.org/2000/svg"
	 xmlns="http://www.w3.org/2000/svg" xmlns:xlink="http://www.w3.org/1999/xlink" x="0px" y="0px" viewBox="0 0 32 32"
	 style="enable-background:new 0 0 32 32;" xml:space="preserve">
<style type="text/css">
	.st0{fill:#C6C6C6;}
	.st1{fill:#FFFFFF;}
</style>
<sodipodi:namedview  bordercolor="#666666" borderopacity="1" gridtolerance="10" guidetolerance="10" id="namedview11" inkscape:current-layer="Layer_1" inkscape:cx="16" inkscape:cy="16" inkscape:document-rotation="0" inkscape:pageopacity="0" inkscape:pageshadow="2" inkscape:window-height="963" inkscape:window-maximized="1" inkscape:window-width="1920" inkscape:window-x="0" inkscape:window-y="0" inkscape:zoom="25.15625" objecttolerance="10" pagecolor="#ffffff" showgrid="false">
	</sodipodi:namedview>
<g id="g6">
	<path id="path4" class="st0" d="M27.1,31.9H4.9c-2.7,0-4.8-2.2-4.8-4.8V4.9c0-2.7,2.2-4.8,4.8-4.8h22.3c2.7,0,4.8,2.2,4.8,4.8v22.3
		C31.9,29.8,29.8,31.9,27.1,31.9z"/>
</g>
<path id="path8" class="st1" d="M23.1,10.6c-0.9-0.9-2.2-0.9-3.1,0l-6.1,6.1l-1.9-2c-0.8-0.9-2.2-0.9-3.1-0.1
	C8,15.4,8,16.8,8.8,17.7l3.4,3.7c0.8,0.9,2.2,0.9,3.1,0.1c0,0,0,0,0.1-0.1l7.7-7.7C23.9,12.8,23.9,11.5,23.1,10.6z"/>
</svg>
