<?xml version="1.0" encoding="utf-8"?>
<!-- Generator: Adobe Illustrator 23.0.3, SVG Export Plug-In . SVG Version: 6.00 Build 0)  -->
<svg version="1.1" id="Layer_1" xmlns="http://www.w3.org/2000/svg" xmlns:xlink="http://www.w3.org/1999/xlink" x="0px" y="0px"
	 viewBox="0 0 32 32" style="enable-background:new 0 0 32 32;" xml:space="preserve">
<style type="text/css">
	.st0{fill:#A2A2A2;}
</style>
<g>
	<path class="st0" d="M25.8,32H6.2C2.8,32,0,29.2,0,25.8V6.2C0,2.8,2.8,0,6.2,0h19.7C29.2,0,32,2.8,32,6.2v19.7
		C32,29.2,29.2,32,25.8,32z M6.2,3.8c-1.3,0-2.3,1-2.3,2.3v19.7c0,1.3,1,2.3,2.3,2.3h19.7c1.3,0,2.3-1,2.3-2.3V6.2
		c0-1.3-1-2.3-2.3-2.3H6.2z"/>
</g>
</svg>
