<?xml version="1.0" encoding="utf-8"?>
<!-- Generator: Adobe Illustrator 23.0.3, SVG Export Plug-In . SVG Version: 6.00 Build 0)  -->
<svg version="1.1" id="Layer_1" xmlns="http://www.w3.org/2000/svg" xmlns:xlink="http://www.w3.org/1999/xlink" x="0px" y="0px"
	 viewBox="0 0 32 32" style="enable-background:new 0 0 32 32;" xml:space="preserve">
<style type="text/css">
	.st0{fill:#1379E6;}
	.st1{fill:#FFFFFF;}
</style>
<g>
	<path class="st0" d="M27.1,31.9H4.9c-2.7,0-4.8-2.2-4.8-4.8V4.9c0-2.7,2.2-4.8,4.8-4.8h22.3c2.7,0,4.8,2.2,4.8,4.8v22.3
		C31.9,29.8,29.8,31.9,27.1,31.9z"/>
</g>
<path class="st1" d="M23.1,10.6c-0.9-0.9-2.2-0.9-3.1,0l-6.1,6.1L12,14.7c-0.8-0.9-2.2-0.9-3.1-0.1c-0.9,0.8-0.9,2.2-0.1,3.1
	l3.4,3.7c0.8,0.9,2.2,0.9,3.1,0.1c0,0,0,0,0.1-0.1l7.7-7.7C23.9,12.8,23.9,11.5,23.1,10.6z"/>
</svg>
