<?xml version="1.0" encoding="UTF-8" standalone="no"?>
<svg
   xmlns:dc="http://purl.org/dc/elements/1.1/"
   xmlns:cc="http://creativecommons.org/ns#"
   xmlns:rdf="http://www.w3.org/1999/02/22-rdf-syntax-ns#"
   xmlns:svg="http://www.w3.org/2000/svg"
   xmlns="http://www.w3.org/2000/svg"
   xmlns:sodipodi="http://sodipodi.sourceforge.net/DTD/sodipodi-0.dtd"
   xmlns:inkscape="http://www.inkscape.org/namespaces/inkscape"
   version="1.1"
   id="Layer_1"
   x="0px"
   y="0px"
   viewBox="0 0 32 32"
   style="enable-background:new 0 0 32 32;"
   xml:space="preserve"
   sodipodi:docname="checkbox-indeterminate-disabled.svg"
   inkscape:version="1.0.2 (e86c870879, 2021-01-15)"><metadata
   id="metadata15"><rdf:RDF><cc:Work
       rdf:about=""><dc:format>image/svg+xml</dc:format><dc:type
         rdf:resource="http://purl.org/dc/dcmitype/StillImage" /></cc:Work></rdf:RDF></metadata><defs
   id="defs13" /><sodipodi:namedview
   pagecolor="#ffffff"
   bordercolor="#666666"
   borderopacity="1"
   objecttolerance="10"
   gridtolerance="10"
   guidetolerance="10"
   inkscape:pageopacity="0"
   inkscape:pageshadow="2"
   inkscape:window-width="1859"
   inkscape:window-height="1025"
   id="namedview11"
   showgrid="false"
   inkscape:zoom="25.15625"
   inkscape:cx="16"
   inkscape:cy="15.920497"
   inkscape:window-x="0"
   inkscape:window-y="0"
   inkscape:window-maximized="1"
   inkscape:current-layer="Layer_1" />
<style
   type="text/css"
   id="style2">
	.st0{fill:#C6C6C6;}
	.st1{opacity:0.5;fill:#A2A2A2;enable-background:new    ;}
</style>
<g
   id="g6">
	<path
   class="st0"
   d="M25.8,32H6.2C2.8,32,0,29.2,0,25.8V6.2C0,2.8,2.8,0,6.2,0h19.7C29.2,0,32,2.8,32,6.2v19.7   C32,29.2,29.2,32,25.8,32z"
   id="path4" />
</g>
<path
   class="st1"
   d="M22.5,17.9h-13c-0.6,0-1.1-0.5-1.1-1.1v-1.6c0-0.6,0.5-1.1,1.1-1.1h13c0.6,0,1.1,0.5,1.1,1.1v1.6  C23.6,17.4,23.1,17.9,22.5,17.9z"
   id="path8" />
<path
   style="fill:#ffffff;stroke-width:0.0397516"
   d="M 9.0832298,17.794093 C 8.8586481,17.691717 8.6817555,17.531908 8.5557421,17.317549 L 8.447205,17.132919 V 16 14.867081 l 0.1085371,-0.18463 C 8.6817555,14.468092 8.8586481,14.308283 9.0832298,14.205907 9.2351118,14.136671 9.545017,14.133423 16,14.133423 c 6.454983,0 6.764888,0.0032 6.91677,0.07248 0.224582,0.102376 0.401475,0.262185 0.527488,0.476544 l 0.108537,0.18463 V 16 17.132919 l -0.108537,0.18463 c -0.126013,0.214359 -0.302906,0.374168 -0.527488,0.476544 -0.151882,0.06924 -0.461787,0.07248 -6.91677,0.07248 -6.454983,0 -6.7648882,-0.0032 -6.9167702,-0.07248 z"
   id="path840" /></svg>
