<?xml version="1.0" encoding="UTF-8" standalone="no"?>
<svg
   xmlns:dc="http://purl.org/dc/elements/1.1/"
   xmlns:cc="http://creativecommons.org/ns#"
   xmlns:rdf="http://www.w3.org/1999/02/22-rdf-syntax-ns#"
   xmlns:svg="http://www.w3.org/2000/svg"
   xmlns="http://www.w3.org/2000/svg"
   xmlns:sodipodi="http://sodipodi.sourceforge.net/DTD/sodipodi-0.dtd"
   xmlns:inkscape="http://www.inkscape.org/namespaces/inkscape"
   version="1.1"
   id="Layer_1"
   x="0px"
   y="0px"
   viewBox="0 0 32 32"
   style="enable-background:new 0 0 32 32;"
   xml:space="preserve"
   sodipodi:docname="radio-indeterminate-disabled.svg"
   inkscape:version="1.0.2 (e86c870879, 2021-01-15)"><metadata
   id="metadata17"><rdf:RDF><cc:Work
       rdf:about=""><dc:format>image/svg+xml</dc:format><dc:type
         rdf:resource="http://purl.org/dc/dcmitype/StillImage" /></cc:Work></rdf:RDF></metadata><defs
   id="defs15" /><sodipodi:namedview
   pagecolor="#ffffff"
   bordercolor="#666666"
   borderopacity="1"
   objecttolerance="10"
   gridtolerance="10"
   guidetolerance="10"
   inkscape:pageopacity="0"
   inkscape:pageshadow="2"
   inkscape:window-width="1859"
   inkscape:window-height="1025"
   id="namedview13"
   showgrid="false"
   inkscape:zoom="25.15625"
   inkscape:cx="16"
   inkscape:cy="16"
   inkscape:window-x="0"
   inkscape:window-y="0"
   inkscape:window-maximized="1"
   inkscape:current-layer="Layer_1" />
<style
   type="text/css"
   id="style2">
	.st0{fill:#C6C6C6;}
	.st1{opacity:0.5;fill:#A2A2A2;enable-background:new    ;}
</style>
<g
   id="g8">
	<g
   id="g6">
		<path
   class="st0"
   d="M16,32C7.2,32,0,24.8,0,16S7.2,0,16,0s16,7.2,16,16S24.8,32,16,32z"
   id="path4" />
	</g>
</g>
<path
   class="st1"
   d="M22.5,17.9h-13c-0.6,0-1.1-0.5-1.1-1.1v-1.6c0-0.6,0.5-1.1,1.1-1.1h13c0.6,0,1.1,0.5,1.1,1.1v1.6  C23.6,17.4,23.1,17.9,22.5,17.9z"
   id="path10"
   style="fill:#ffffff;fill-opacity:1" />
<path
   style="fill:#ffffff;fill-opacity:1;stroke-width:0.0397516"
   d="M 9.1789962,17.826444 C 8.9356887,17.751494 8.6371531,17.482465 8.5213651,17.233813 8.4310469,17.039856 8.4281059,17.000946 8.4281059,16 c 0,-1.000946 0.00294,-1.039856 0.093259,-1.233813 0.1205373,-0.258851 0.4137639,-0.517582 0.6742644,-0.594943 0.3024246,-0.08981 13.3063167,-0.08981 13.6087417,0 0.2605,0.07736 0.553726,0.336092 0.674264,0.594943 0.09032,0.193957 0.09326,0.232867 0.09326,1.233813 0,1.000946 -0.0029,1.039856 -0.09326,1.233813 -0.120538,0.258851 -0.413764,0.517582 -0.674264,0.594943 -0.292751,0.08694 -13.3428373,0.08472 -13.625375,-0.0023 z"
   id="path842" /></svg>
